<svg xmlns="http://www.w3.org/2000/svg" viewBox="0 0 73.39 87.88"><defs><style>.cls-1{fill:#0c809a;}</style></defs><title>notifications</title><g id="Layer_2" data-name="Layer 2"><g id="Layer_1-2" data-name="Layer 1"><path class="cls-1" d="M73.39,74.77c0-.07-.2-7.35-1.06-8.83-.12-.21-.31-.49-.54-.84-1.72-2.62-6.3-9.59-6.37-22.68,0-.94-.08-1.87-.12-2.81a68.47,68.47,0,0,0-.49-6.91,24.25,24.25,0,0,0-7.49-14.55,28.51,28.51,0,0,0-11.87-6.69,21.35,21.35,0,0,0-.06-3.2,10.26,10.26,0,0,0-.9-3.47A8.6,8.6,0,0,0,34.87.22a8.78,8.78,0,0,0-6.82,8.4c0,1,0,2,0,2.92-1.09.35-2.15.69-3.17,1.12-6.94,2.87-11.81,7.57-14.49,14a32.55,32.55,0,0,0-2.23,13A59.35,59.35,0,0,1,6.26,54.89l-.32,1.23c-1,3.87-2,7.53-4.31,10.26C.44,67.77,0,74.27,0,74.77v2.47H25.81a9.33,9.33,0,0,0,.06,1.18,10.77,10.77,0,0,0,4.21,7.22,10.9,10.9,0,0,0,6.56,2.24,9.26,9.26,0,0,0,1.49-.11,11.18,11.18,0,0,0,7.44-4.54,10.74,10.74,0,0,0,2-6h25.8Zm-31.85,5.6a6.2,6.2,0,0,1-4.14,2.52,6,6,0,0,1-6.61-5,3.69,3.69,0,0,1,0-.58c1.32,0,2.64,0,4,0h7.92A5.79,5.79,0,0,1,41.54,80.37ZM5.16,72.3c.17-1.24.4-2.49.54-3.08,2.86-3.54,4-7.95,5-11.85l.32-1.22a64.11,64.11,0,0,0,2-16.54A27.86,27.86,0,0,1,15,28.54c2.19-5.23,6.05-8.93,11.81-11.32.95-.39,1.93-.7,2.94-1L33,15.09V8.68A3.81,3.81,0,0,1,36,5a3.62,3.62,0,0,1,4,1.92,5,5,0,0,1,.42,1.78,16.78,16.78,0,0,1,0,3.09,3.76,3.76,0,0,0,3.08,4.25,23.48,23.48,0,0,1,10.37,5.67,19.47,19.47,0,0,1,6,11.66,62.24,62.24,0,0,1,.44,6.4c0,1,.07,1.94.12,2.78.07,14.43,5.24,22.28,7.18,25.24l.21.18a42.73,42.73,0,0,1,.47,4.31Z"/></g></g></svg>