<svg xmlns="http://www.w3.org/2000/svg" viewBox="0 0 73.98 84.19"><defs><style>.cls-1{fill:#0c809a;}</style></defs><title>profile</title><g id="Layer_2" data-name="Layer 2"><g id="Layer_1-2" data-name="Layer 1"><path class="cls-1" d="M74,84.19H0V75.57A32.9,32.9,0,0,1,32.91,42.76h8.16A32.9,32.9,0,0,1,74,75.57ZM4.76,79.44H69.22V75.57A28.14,28.14,0,0,0,41.07,47.5H32.91A28.14,28.14,0,0,0,4.76,75.57Z"/><path class="cls-1" d="M37,38.23A19.12,19.12,0,1,1,56.15,19.11,19.17,19.17,0,0,1,37,38.23ZM37,4.74A14.37,14.37,0,1,0,51.4,19.11,14.41,14.41,0,0,0,37,4.74Z"/></g></g></svg>